<mxfile host="app.diagrams.net" modified="2024-08-21T02:37:05.373Z" agent="Mozilla/5.0 (Macintosh; Intel Mac OS X 10_15_7) AppleWebKit/537.36 (KHTML, like Gecko) Chrome/127.0.0.0 Safari/537.36" version="24.6.5" etag="8J3vd7ojhrSc64r9B83I" type="github">
  <diagram name="PÃ¡gina-1" id="NSROGlEjVS8DR5BxaX8x">
    <mxGraphModel>
      <root>
        <mxCell id="0" />
        <mxCell id="1" parent="0" />
      </root>
    </mxGraphModel>
  </diagram>
</mxfile>
